<svg width="32" height="32" viewBox="0 0 32 32" fill="none" xmlns="http://www.w3.org/2000/svg">
<path d="M24.3695 5.34814H7.63037V25.1307H24.3695V5.34814Z" fill="#AA572A"/>
<path fill-rule="evenodd" clip-rule="evenodd" d="M2.3042 4.20673C2.3042 3.57641 2.81518 3.06543 3.44551 3.06543H6.48898C7.11931 3.06543 7.63029 3.57641 7.63029 4.20673V13.7176H24.3694V4.20673C24.3694 3.57641 24.8804 3.06543 25.5107 3.06543H28.5542C29.1845 3.06543 29.6955 3.57641 29.6955 4.20673V27.7937C29.6955 28.424 29.1845 28.935 28.5542 28.935H3.44551C2.81518 28.935 2.3042 28.424 2.3042 27.7937V4.20673ZM7.63029 25.1306H24.3694V18.2828H7.63029V25.1306Z" fill="#FFC800"/>
<path d="M29.6956 21.2718L21.4582 28.9345H3.94922L8.03889 25.1301H24.3695V18.2823H15.4003L20.3079 13.7171H24.3695V9.93888L29.6956 4.98438V21.2718Z" fill="#FBE56D"/>
<path d="M7.63029 13.657L2.3042 18.6115V9.74796L7.63029 4.79346V13.657Z" fill="#FBE56D"/>
<path d="M13.1435 10.502H19.1247C20.0686 10.502 20.8337 11.2931 20.8337 12.2691V19.3379C20.8337 20.3138 20.0686 21.105 19.1247 21.105H13.1435C12.1997 21.105 11.4346 20.3138 11.4346 19.3379V12.2691C11.4346 11.2931 12.1997 10.502 13.1435 10.502Z" fill="#FFC800"/>
<path d="M18.2181 14.478C18.2181 13.258 17.2617 12.269 16.0819 12.269C14.9021 12.269 13.9458 13.258 13.9458 14.478C13.9458 15.1986 14.2794 15.8386 14.7957 16.2418L14.2543 18.2128C14.2327 18.2913 14.2218 18.3726 14.2218 18.4542C14.2218 18.9422 14.6043 19.3378 15.0763 19.3378H17.0866C17.1656 19.3378 17.2441 19.3265 17.3201 19.3042C17.774 19.1709 18.0375 18.6822 17.9086 18.2128L17.3673 16.2424C17.8841 15.8393 18.2181 15.199 18.2181 14.478Z" fill="#CD7900"/>
</svg>
