<svg width="32" height="32" viewBox="0 0 32 32" fill="none" xmlns="http://www.w3.org/2000/svg">
<path d="M24.5852 25.266C24.2883 26.8245 22.9257 27.9521 21.3392 27.9521H10.6401C9.05354 27.9521 7.69094 26.8245 7.39408 25.266L4.98096 12.5971L15.9001 4.52246L26.9988 12.5943L24.5852 25.266Z" fill="#FFC800"/>
<path opacity="0.5" fill-rule="evenodd" clip-rule="evenodd" d="M13.1558 23.1111C13.1558 22.522 13.6333 22.0444 14.2224 22.0444H18.4891C19.0782 22.0444 19.5558 22.522 19.5558 23.1111C19.5558 23.7002 19.0782 24.1778 18.4891 24.1778H14.2224C13.6333 24.1778 13.1558 23.7002 13.1558 23.1111Z" fill="#945151"/>
<path d="M19.4785 16.2996C19.4785 18.2206 17.9212 19.7778 16.0002 19.7778C14.0792 19.7778 12.522 18.2206 12.522 16.2996C12.522 14.3786 14.0792 12.8213 16.0002 12.8213C17.9212 12.8213 19.4785 14.3786 19.4785 16.2996Z" fill="#945151"/>
<path d="M16.1685 2.8444C16.6431 2.84209 17.1233 2.98567 17.5361 3.28536L29.9455 12.2317C30.9781 12.982 31.207 14.4273 30.4568 15.4599C29.7067 16.4922 28.262 16.7213 27.2294 15.9717L16.1602 7.99163L5.09208 15.971L5.09121 15.9717C4.05865 16.7211 2.61395 16.4921 1.86391 15.4597C1.11367 14.4271 1.34258 12.9818 2.3752 12.2316L2.37679 12.2304L14.7839 3.28574C15.2015 2.98259 15.6887 2.83867 16.1685 2.8444Z" fill="#FF4B4B"/>
</svg>
