<svg width="32" height="32" viewBox="0 0 32 32" fill="none" xmlns="http://www.w3.org/2000/svg">
<path d="M16.0001 29.2175C23.2999 29.2175 29.2175 23.2999 29.2175 16.0001C29.2175 8.70034 23.2999 2.78271 16.0001 2.78271C8.70034 2.78271 2.78271 8.70034 2.78271 16.0001C2.78271 23.2999 8.70034 29.2175 16.0001 29.2175Z" fill="#CE82FF" stroke="#CE82FF" stroke-width="2"/>
<path d="M10.4348 17.3915C11.2032 17.3915 11.8261 16.7686 11.8261 16.0002C11.8261 15.2318 11.2032 14.6089 10.4348 14.6089C9.66637 14.6089 9.04346 15.2318 9.04346 16.0002C9.04346 16.7686 9.66637 17.3915 10.4348 17.3915Z" fill="white"/>
<path d="M16.0002 17.3915C16.7686 17.3915 17.3915 16.7686 17.3915 16.0002C17.3915 15.2318 16.7686 14.6089 16.0002 14.6089C15.2318 14.6089 14.6089 15.2318 14.6089 16.0002C14.6089 16.7686 15.2318 17.3915 16.0002 17.3915Z" fill="white"/>
<path d="M21.5651 17.3915C22.3335 17.3915 22.9564 16.7686 22.9564 16.0002C22.9564 15.2318 22.3335 14.6089 21.5651 14.6089C20.7967 14.6089 20.1738 15.2318 20.1738 16.0002C20.1738 16.7686 20.7967 17.3915 21.5651 17.3915Z" fill="white"/>
</svg>
