<svg width="32" height="32" viewBox="0 0 32 32" fill="none" xmlns="http://www.w3.org/2000/svg">
<g clip-path="url(#clip0_301_435)">
<mask id="mask0_301_435" style="mask-type:luminance" maskUnits="userSpaceOnUse" x="0" y="0" width="32" height="32">
<path d="M32 0H0V32H32V0Z" fill="white"/>
</mask>
<g mask="url(#mask0_301_435)">
<path d="M12.814 17.4382L18.8385 13.96" stroke="#AFAFAF" stroke-width="3"/>
<path d="M20.8755 6.35746C20.011 4.86019 18.0965 4.34719 16.5992 5.21164C15.102 6.07608 14.589 7.99063 15.4534 9.48789L21.3664 19.7296C22.2309 21.2268 24.1454 21.7398 25.6427 20.8754C27.14 20.011 27.653 18.0964 26.7885 16.5991L20.8755 6.35746Z" fill="#1CB0F6"/>
<path d="M10.6343 12.2705C9.76982 10.7733 7.85527 10.2603 6.35801 11.1247C4.86075 11.9892 4.34774 13.9037 5.21219 15.401L11.1252 25.6427C11.9897 27.1399 13.9042 27.6529 15.4015 26.7885C16.8988 25.924 17.4118 24.0095 16.5473 22.5122L10.6343 12.2705Z" fill="#1CB0F6"/>
<path d="M26.4839 6.33255C25.6194 4.83529 23.7049 4.32229 22.2076 5.18674C20.7104 6.05118 20.1974 7.96573 21.0618 9.46299L24.1922 14.8851C25.0567 16.3823 26.9712 16.8953 28.4685 16.0309C29.9658 15.1664 30.4788 13.2519 29.6143 11.7546L26.4839 6.33255Z" fill="#1CB0F6"/>
<path d="M7.80809 17.1153C6.94364 15.618 5.0291 15.105 3.53184 15.9695C2.03457 16.8339 1.52157 18.7484 2.38602 20.2457L5.51645 25.6678C6.3809 27.165 8.29544 27.678 9.79271 26.8136C11.29 25.9491 11.803 24.0346 10.9385 22.5373L7.80809 17.1153Z" fill="#1CB0F6"/>
<path opacity="0.3" d="M5.93261 18.0907C5.64446 17.5916 5.00628 17.4206 4.50719 17.7087C4.00811 17.9969 3.83711 18.6351 4.12525 19.1341L4.82091 20.3391C5.10906 20.8381 5.74724 21.0091 6.24632 20.721C6.74541 20.4328 6.91641 19.7947 6.62826 19.2956L5.93261 18.0907Z" fill="white"/>
<path opacity="0.3" d="M25.4106 7.65561C25.1225 7.15652 24.4843 6.98552 23.9852 7.27367C23.4861 7.56182 23.3151 8.2 23.6033 8.69909L24.2989 9.90399C24.5871 10.4031 25.2253 10.5741 25.7244 10.2859C26.2234 9.99778 26.3944 9.3596 26.1063 8.86052L25.4106 7.65561Z" fill="white"/>
<path opacity="0.3" d="M8.71533 13.221C8.42718 12.722 7.789 12.551 7.28991 12.8391C6.79082 13.1272 6.61982 13.7654 6.90797 14.2645L7.95145 16.0719C8.2396 16.571 8.87778 16.742 9.37687 16.4538C9.87595 16.1657 10.047 15.5275 9.75881 15.0284L8.71533 13.221Z" fill="white"/>
<path opacity="0.3" d="M19.1499 7.65561C18.8617 7.15652 18.2236 6.98552 17.7245 7.27367C17.2254 7.56182 17.0544 8.2 17.3425 8.69909L18.386 10.5064C18.6742 11.0055 19.3123 11.1765 19.8114 10.8884C20.3105 10.6002 20.4815 9.96206 20.1934 9.46297L19.1499 7.65561Z" fill="white"/>
</g>
</g>
<defs>
<clipPath id="clip0_301_435">
<rect width="32" height="32" fill="white"/>
</clipPath>
</defs>
</svg>
