<svg width="32" height="32" viewBox="0 0 32 32" fill="none" xmlns="http://www.w3.org/2000/svg">
<path d="M27.826 25.0436V11.8262H4.17383V25.0436C4.17383 26.5803 5.38405 27.8262 6.87693 27.8262H25.1229C26.6158 27.8262 27.826 26.5803 27.826 25.0436Z" fill="#A56644"/>
<path d="M2.78271 6.95644C2.78271 5.41964 4.02853 4.17383 5.56532 4.17383H11.8262V11.826H2.78271V6.95644Z" fill="#EA2B2B"/>
<path d="M2.78271 11.8262H11.8262V12.174C11.8262 14.6713 9.80178 16.6957 7.30445 16.6957C4.80717 16.6957 2.78271 14.6713 2.78271 12.174V11.8262Z" fill="#FF4945"/>
<path d="M11.8262 11.8262H20.174V12.174C20.174 14.6713 18.3053 16.6957 16.0001 16.6957C13.6949 16.6957 11.8262 14.6713 11.8262 12.174V11.8262Z" fill="white"/>
<path d="M20.1738 11.8262H29.2173V12.174C29.2173 14.6713 27.1929 16.6957 24.6956 16.6957C22.1982 16.6957 20.1738 14.6713 20.1738 12.174V11.8262Z" fill="#FF4945"/>
<path d="M11.8262 4.17383H20.174V11.826H11.8262V4.17383Z" fill="#D0D0D0"/>
<path d="M20.1738 4.17383H26.4347C27.9715 4.17383 29.2173 5.41964 29.2173 6.95644V11.826H20.1738V4.17383Z" fill="#EA2B2B"/>
<path d="M7.65234 20.8693C7.65234 20.1009 8.27523 19.478 9.04365 19.478H12.5219C13.2903 19.478 13.9132 20.1009 13.9132 20.8693V27.8259H7.65234V20.8693Z" fill="#B9E8FF"/>
<path d="M16.6958 20.8693C16.6958 20.1009 17.3187 19.478 18.0871 19.478H23.6523C24.4207 19.478 25.0436 20.1009 25.0436 20.8693V23.6519C25.0436 24.4204 24.4207 25.0432 23.6523 25.0432H18.0871C17.3187 25.0432 16.6958 24.4204 16.6958 23.6519V20.8693Z" fill="#B9E8FF"/>
</svg>
