<svg width="31" height="24" viewBox="0 0 31 24" fill="none" xmlns="http://www.w3.org/2000/svg">
<g clip-path="url(#clip0_304_422)">
<path fill-rule="evenodd" clip-rule="evenodd" d="M5.56363 0L25.4364 0C27.371 0 28.0725 0.202154 28.7798 0.581756C29.487 0.961358 30.0421 1.51841 30.4203 2.2282C30.7986 2.938 31 3.64204 31 5.58357V18.4164C31 20.358 30.7986 21.062 30.4203 21.7718C30.0421 22.4816 29.487 23.0386 28.7798 23.4182C28.0725 23.7978 27.371 24 25.4364 24H5.56363C3.62904 24 2.9275 23.7978 2.22024 23.4182C1.51299 23.0386 0.957924 22.4816 0.579678 21.7718C0.201432 21.062 0 20.358 0 18.4164L0 5.58357C0 3.64204 0.201432 2.938 0.579678 2.2282C0.957924 1.51841 1.51299 0.961358 2.22024 0.581756C2.9275 0.202154 3.62904 0 5.56363 0Z" fill="#EEEEEE"/>
<path fill-rule="evenodd" clip-rule="evenodd" d="M5.56339 0H25.4361C27.3707 0 28.0723 0.202154 28.7795 0.581756C29.4868 0.961358 30.0418 1.51841 30.4201 2.2282C30.4963 2.3712 30.5653 2.51397 30.627 2.66667H0.372559C0.434208 2.51397 0.503235 2.3712 0.579438 2.2282C0.957685 1.51841 1.51275 0.961358 2.22001 0.581756C2.92726 0.202154 3.6288 0 5.56339 0Z" fill="#FF4B4B"/>
<path fill-rule="evenodd" clip-rule="evenodd" d="M30.9988 5.3335C30.9996 5.41456 31 5.49794 31 5.58373V8.00016H0V5.58373C0 5.49794 0.000393322 5.41456 0.00117784 5.3335H30.9988Z" fill="#FF4B4B"/>
<path fill-rule="evenodd" clip-rule="evenodd" d="M31 10.6665V13.3332H0L0 10.6665H31Z" fill="#FF4B4B"/>
<path fill-rule="evenodd" clip-rule="evenodd" d="M31 18.4164C31 18.5022 30.9996 18.5856 30.9988 18.6667H0.00117784C0.000393322 18.5856 0 18.5022 0 18.4164V16H31V18.4164Z" fill="#FF4B4B"/>
<path fill-rule="evenodd" clip-rule="evenodd" d="M30.627 21.3335C30.5653 21.4862 30.4963 21.629 30.4201 21.772C30.0418 22.4818 29.4868 23.0388 28.7795 23.4184C28.0723 23.798 27.3707 24.0002 25.4361 24.0002H5.56339C3.6288 24.0002 2.92726 23.798 2.22001 23.4184C1.51275 23.0388 0.957685 22.4818 0.579438 21.772C0.503235 21.629 0.434208 21.4862 0.372559 21.3335H30.627Z" fill="#FF4B4B"/>
<path fill-rule="evenodd" clip-rule="evenodd" d="M5.56363 0H15.5V10.6667H0V5.58357C0 3.64204 0.201432 2.938 0.579678 2.2282C0.957924 1.51841 1.51299 0.961358 2.22024 0.581756C2.9275 0.202154 3.62904 0 5.56363 0Z" fill="#1CB0F6"/>
<path d="M12.3141 4.26771L11.7492 4.56576C11.5718 4.65934 11.3524 4.5909 11.2592 4.41289C11.222 4.342 11.2092 4.26081 11.2227 4.18188L11.3306 3.5506C11.3409 3.49053 11.321 3.42923 11.2775 3.38669L10.8205 2.93962C10.677 2.79924 10.6741 2.56869 10.814 2.42467C10.8697 2.36732 10.9426 2.33 11.0216 2.31849L11.6532 2.22638C11.7133 2.21762 11.7652 2.17974 11.7921 2.12508L12.0746 1.55073C12.1633 1.37038 12.3808 1.29633 12.5605 1.38534C12.6321 1.42078 12.69 1.47891 12.7253 1.55073L13.0078 2.12508C13.0347 2.17974 13.0866 2.21762 13.1467 2.22638L13.7783 2.31849C13.9766 2.34741 14.114 2.53219 14.0852 2.73122C14.0737 2.81047 14.0365 2.88372 13.9794 2.93962L13.5224 3.38669C13.4789 3.42923 13.459 3.49053 13.4693 3.5506L13.5772 4.18188C13.6111 4.3801 13.4784 4.56835 13.2809 4.60234C13.2022 4.61588 13.1213 4.60302 13.0507 4.56576L12.4858 4.26771C12.4321 4.23935 12.3678 4.23935 12.3141 4.26771Z" fill="white"/>
<path d="M12.3141 8.71204L11.7492 9.01009C11.5718 9.10368 11.3524 9.03524 11.2592 8.85722C11.222 8.78634 11.2092 8.70514 11.2227 8.62621L11.3306 7.99494C11.3409 7.93486 11.321 7.87357 11.2775 7.83102L10.8205 7.38395C10.677 7.24357 10.6741 7.01302 10.814 6.86901C10.8697 6.81166 10.9426 6.77434 11.0216 6.76282L11.6532 6.67072C11.7133 6.66196 11.7652 6.62407 11.7921 6.56942L12.0746 5.99506C12.1633 5.81472 12.3808 5.74067 12.5605 5.82968C12.6321 5.86512 12.69 5.92325 12.7253 5.99506L13.0078 6.56942C13.0347 6.62407 13.0866 6.66196 13.1467 6.67072L13.7783 6.76282C13.9766 6.79174 14.114 6.97653 14.0852 7.17555C14.0737 7.25481 14.0365 7.32805 13.9794 7.38395L13.5224 7.83102C13.4789 7.87357 13.459 7.93486 13.4693 7.99494L13.5772 8.62621C13.6111 8.82443 13.4784 9.01268 13.2809 9.04668C13.2022 9.06022 13.1213 9.04736 13.0507 9.01009L12.4858 8.71204C12.4321 8.68368 12.3678 8.68368 12.3141 8.71204Z" fill="white"/>
<path d="M7.88537 4.26771L7.32047 4.56576C7.1431 4.65934 6.92371 4.5909 6.83045 4.41289C6.79332 4.342 6.78051 4.26081 6.794 4.18188L6.90188 3.5506C6.91215 3.49053 6.8923 3.42923 6.84881 3.38669L6.3918 2.93962C6.2483 2.79924 6.24537 2.56869 6.38525 2.42467C6.44095 2.36732 6.51393 2.33 6.5929 2.31849L7.22447 2.22638C7.28457 2.21762 7.33653 2.17974 7.36341 2.12508L7.64586 1.55073C7.73454 1.37038 7.95212 1.29633 8.13182 1.38534C8.20338 1.42078 8.2613 1.47891 8.29662 1.55073L8.57907 2.12508C8.60594 2.17974 8.6579 2.21762 8.718 2.22638L9.34957 2.31849C9.54789 2.34741 9.68529 2.53219 9.65648 2.73122C9.645 2.81047 9.60781 2.88372 9.55067 2.93962L9.09366 3.38669C9.05017 3.42923 9.03032 3.49053 9.04059 3.5506L9.14848 4.18188C9.18235 4.3801 9.0497 4.56835 8.85219 4.60234C8.77354 4.61588 8.69263 4.60302 8.622 4.56576L8.0571 4.26771C8.00335 4.23935 7.93913 4.23935 7.88537 4.26771Z" fill="white"/>
<path d="M7.88537 8.71204L7.32047 9.01009C7.1431 9.10368 6.92371 9.03524 6.83045 8.85722C6.79332 8.78634 6.78051 8.70514 6.794 8.62621L6.90188 7.99494C6.91215 7.93486 6.8923 7.87357 6.84881 7.83102L6.3918 7.38395C6.2483 7.24357 6.24537 7.01302 6.38525 6.86901C6.44095 6.81166 6.51393 6.77434 6.5929 6.76282L7.22447 6.67072C7.28457 6.66196 7.33653 6.62407 7.36341 6.56942L7.64586 5.99506C7.73454 5.81472 7.95212 5.74067 8.13182 5.82968C8.20338 5.86512 8.2613 5.92325 8.29662 5.99506L8.57907 6.56942C8.60594 6.62407 8.6579 6.66196 8.718 6.67072L9.34957 6.76282C9.54789 6.79174 9.68529 6.97653 9.65648 7.17555C9.645 7.25481 9.60781 7.32805 9.55067 7.38395L9.09366 7.83102C9.05017 7.87357 9.03032 7.93486 9.04059 7.99494L9.14848 8.62621C9.18235 8.82443 9.0497 9.01268 8.85219 9.04668C8.77354 9.06022 8.69263 9.04736 8.622 9.01009L8.0571 8.71204C8.00335 8.68368 7.93913 8.68368 7.88537 8.71204Z" fill="white"/>
<path d="M3.45715 4.26771L2.89225 4.56576C2.71487 4.65934 2.49548 4.5909 2.40223 4.41289C2.3651 4.342 2.35228 4.26081 2.36577 4.18188L2.47366 3.5506C2.48393 3.49053 2.46408 3.42923 2.42059 3.38669L1.96358 2.93962C1.82008 2.79924 1.81714 2.56869 1.95702 2.42467C2.01272 2.36732 2.08571 2.33 2.16468 2.31849L2.79625 2.22638C2.85635 2.21762 2.90831 2.17974 2.93518 2.12508L3.21763 1.55073C3.30632 1.37038 3.5239 1.29633 3.7036 1.38534C3.77516 1.42078 3.83308 1.47891 3.86839 1.55073L4.15084 2.12508C4.17772 2.17974 4.22968 2.21762 4.28978 2.22638L4.92135 2.31849C5.11966 2.34741 5.25707 2.53219 5.22825 2.73122C5.21678 2.81047 5.17959 2.88372 5.12245 2.93962L4.66544 3.38669C4.62195 3.42923 4.6021 3.49053 4.61237 3.5506L4.72025 4.18188C4.75413 4.3801 4.62148 4.56835 4.42396 4.60234C4.34531 4.61588 4.26441 4.60302 4.19378 4.56576L3.62888 4.26771C3.57512 4.23935 3.5109 4.23935 3.45715 4.26771Z" fill="white"/>
<path d="M3.45715 8.71204L2.89225 9.01009C2.71487 9.10368 2.49548 9.03524 2.40223 8.85722C2.3651 8.78634 2.35228 8.70514 2.36577 8.62621L2.47366 7.99494C2.48393 7.93486 2.46408 7.87357 2.42059 7.83102L1.96358 7.38395C1.82008 7.24357 1.81714 7.01302 1.95702 6.86901C2.01272 6.81166 2.08571 6.77434 2.16468 6.76282L2.79625 6.67072C2.85635 6.66196 2.90831 6.62407 2.93518 6.56942L3.21763 5.99506C3.30632 5.81472 3.5239 5.74067 3.7036 5.82968C3.77516 5.86512 3.83308 5.92325 3.86839 5.99506L4.15084 6.56942C4.17772 6.62407 4.22968 6.66196 4.28978 6.67072L4.92135 6.76282C5.11966 6.79174 5.25707 6.97653 5.22825 7.17555C5.21678 7.25481 5.17959 7.32805 5.12245 7.38395L4.66544 7.83102C4.62195 7.87357 4.6021 7.93486 4.61237 7.99494L4.72025 8.62621C4.75413 8.82443 4.62148 9.01268 4.42396 9.04668C4.34531 9.06022 4.26441 9.04736 4.19378 9.01009L3.62888 8.71204C3.57512 8.68368 3.5109 8.68368 3.45715 8.71204Z" fill="white"/>
</g>
<defs>
<clipPath id="clip0_304_422">
<rect width="31" height="24" fill="white"/>
</clipPath>
</defs>
</svg>
